<svg viewBox="241 232 543 530" width="1024" height="1024" version="1.1" xmlns="http://www.w3.org/2000/svg" desc="Created with imagetracer.js version 1.2.6" ><path fill="rgb(0,0,0)" stroke="rgb(0,0,0)" stroke-width="1" opacity="0" d="M 0 0 L 1024 0 L 1024 1024 L 0 1024 L 0 0 Z M 341 232 L 316 237 L 301 243 Q 287 250 276 260 Q 262 272 253 289 L 245 308 L 241 327 L 241 660 L 242 661 L 242 668 L 244 678 L 250 695 Q 257 711 268 724 Q 281 739 300 749 L 322 758 L 341 762 L 683 762 L 703 758 L 715 754 Q 732 747 746 735 Q 776 711 784 665 L 784 326 L 780 307 L 777 299 Q 768 279 754 265 Q 739 249 718 240 L 698 234 L 686 233 L 685 232 L 341 232 Z " /><path fill="rgb(30,31,31)" stroke="rgb(30,31,31)" stroke-width="1" opacity="0.996078431372549" d="M 340.5 232 L 684.5 232 L 685.5 233 L 697.5 234 L 717.5 240 Q 738.8 249.2 754 264.5 Q 768.2 278.8 777 298.5 L 780 306.5 L 784 325.5 L 784 664.5 Q 775.6 710.6 745.5 735 Q 732 746.5 714.5 754 L 702.5 758 L 682.5 762 L 340.5 762 L 321.5 758 L 299.5 749 Q 281.1 738.9 268 723.5 Q 256.9 711.1 250 694.5 L 244 677.5 L 242 667.5 L 242 660.5 L 241 659.5 L 241 326.5 L 245 307.5 L 253 288.5 Q 262.2 272.2 275.5 260 Q 286.5 250 300.5 243 L 315.5 237 L 340.5 232 Z M 511 302 L 367 385 L 363 389 L 363 559 L 380 570 L 505 644 L 514 648 L 520 646 L 541 633 L 545 628 L 545 596 L 514 614 L 394 543 L 392 543 L 392 406 L 512 336 L 523 341 L 632 405 L 633 407 L 633 543 L 584 571 L 574 579 L 575 612 L 661 561 L 663 558 L 663 389 L 657 383 L 517 302 L 511 302 Z M 468 395 L 463 401 L 463 540 L 465 544 L 468 546 L 472 547 L 481 543 L 590 478 L 594 473 L 593 466 L 478 397 Q 475 394 468 395 Z " /><path fill="rgb(251,189,69)" stroke="rgb(251,189,69)" stroke-width="1" opacity="0.996078431372549" d="M 510.5 302 L 516.5 302 L 656.5 383 L 663 388.5 L 663 557.5 L 660.5 561 L 574.5 612 L 574 578.5 L 583.5 571 L 633 542.5 L 633 406.5 L 631.5 405 L 522.5 341 L 511.5 336 L 392 406 L 392 542.5 L 393.5 543 L 513.5 614 L 545 596 L 545 627.5 L 540.5 633 L 519.5 646 L 513.5 648 L 504.5 644 L 379.5 570 L 363 558.5 L 363 388.5 L 366.5 385 L 510.5 302 Z " /><path fill="rgb(251,189,69)" stroke="rgb(251,189,69)" stroke-width="1" opacity="0.996078431372549" d="M 467.5 395 Q 474.5 394 477.5 397 L 593 465.5 L 594 472.5 L 589.5 478 L 480.5 543 L 471.5 547 L 467.5 546 L 465 543.5 L 463 539.5 L 463 400.5 L 467.5 395 Z " /></svg>